<svg id="Layer_1" data-name="Layer 1" xmlns="http://www.w3.org/2000/svg" viewBox="0 0 1461.61 792"><defs><style>.cls-1{fill:#070707;}.cls-2{fill:#4fae55;}.cls-3{fill:#4eae54;}.cls-4{fill:#030303;}.cls-5{fill:#55ae5e;}.cls-6{fill:#090909;}.cls-7{fill:#53ad5d;}.cls-8{fill:#57af60;}.cls-9{fill:#0c0c0c;}.cls-10{fill:#4fae56;}.cls-11{fill:#111;}.cls-12{fill:#59ae64;}.cls-13{fill:#151515;}.cls-14{fill:#63b16f;}.cls-15{fill:#333;}.cls-16{fill:#212121;}.cls-17{fill:#272727;}.cls-18{fill:#e3e3e3;}.cls-19{fill:#97bea3;}.cls-20{fill:#232323;}</style></defs><title>Artboard 1</title><path class="cls-1" d="M943.49,274.12c7.81-4.83,15.45-10,23.53-14.29,2.24-1.2,6.19-.91,8.57.28,3.2,1.58,3.35,7.47.84,11.23-4.5,6.75-9.24,13.34-13.76,20.07-5.22,7.77-10.3,15.63-15.43,23.45l1.13,1.1a33.6,33.6,0,0,0,3.29-2.76,430.59,430.59,0,0,1,50.8-46.06,22.55,22.55,0,0,0,2.9-3.31c3-1.69,6.2-3.05,8.91-5.1,9.42-7.16,19.63-7.72,30.47-4.29,5.32,3.13,5.93,5.9,2.66,11.2-1.11,1.8-2,3.76-2.91,5.65l-2.56,1.08-5,2.23-1.38.69h-1.17l-1.36-.68-1.93-.41-6.64.12-1.5.16-2.26.82-2.72,1.18-4.49,2.79a.33.33,0,0,0-.5.17l-4.93,3.35c-3.24,1.89-6.66,3.53-9.7,5.7-34.13,24.5-60.45,56.05-82.22,91.66-2.15,3.51-3.88,7.32-6.28,10.64a16.33,16.33,0,0,1-5.63,4.4c-3.44,1.8-7.1,3.17-10.68,4.73,6.66,14.82,5.84,25.86-15.36,44.07l-1.54-2.85c-3.33,4-5.95,4.17-12.59,1,.54-.6,1.07-1.21,1.6-1.81l2.31-2.94c5.76-7.32,11.23-14.78,13.41-24.09,2.47-10.6-.85-16.54-11.73-18.05-10-1.39-20.22-1.5-30.35-1.76-12.45-.33-24.89-.37-36.85,4.27-2.47.95-6,1.21-8.3.21-10.75-4.6-21.69-2.39-32.48-1.27-12.36,1.28-24.59,3.81-36.93,5.38-3.74.48-4.81,2.34-5.84,5.45-13.3,39.92-27.81,79.38-44.8,117.91-17.26,39.16-36.66,77.18-60.21,113-19.81,30.12-42.24,58-69.84,81.48-25.69,21.81-54.24,38.41-87.6,44.92-44.64,8.72-86.26,2-122.55-27.29-16.56-13.34-32.85-27-44.58-45.23-14.92-23.11-20.87-48.07-14.09-75,3.87-15.43,12.16-29,21.95-41.46,24.78-31.61,57.28-53.67,91.61-73.3,35.43-20.26,72.59-36.88,110.73-51.3,4-1.52,5.95-3.23,6.89-8.06,6.18-31.75,14.83-62.85,27.4-92.72,4.63-11,9.85-21.76,14.79-32.63.71-1.55,1.35-3.14,2-4.72l-1.14-.83-8.89,8.63c-27.46,26.71-56.08,52-88.72,72.36-12,7.47-22.81,1.89-23.78-12.21-.81-11.84,2.43-22.95,8.32-32.85,26-43.76,60.73-78.79,106.07-102.63,11.9-6.26,24.5-8.1,37.58-3.72,7.42,2.48,14.43,3.34,20.74-3,2.49-2.51,6.11-2.14,8.46.52,2.76,3.13,3.94,6.81,1.28,10.89q-11.15,17.11-22.12,34.36a528.44,528.44,0,0,0-66.1,154.6c-.23.92-.34,1.87-.62,3.46,10.61-3.6,20.69-7,30.75-10.45,40.21-13.8,81.15-25,122.52-34.77,2.38-.56,4.48-2.52,6.61-4,3.07-2.1,6.08-4.89,8.43.51h1.21c9.63,0,13.21-5.5,15-14.41,4.38-21.42,9.7-42.65,14.6-64a54,54,0,0,0,.62-5.77c-5.63,5.25-10,10.2-15.26,14.06-12.53,9.27-25.73,17.65-38.12,27.1-15.37,11.72-31,23-48.69,30.87-8.37,3.73-15.51,1-17.57-7.4-.67-2.69.23-6.24,1.5-8.86,9.85-20.26,19.8-40.48,30.09-60.51,3-5.76,5.52-11.26,4.47-17.91-.75-4.75,1.6-8.07,5.65-10.12,8.12-4.11,16.21-8.31,24.54-12,10.72-4.7,15.65-1.63,17.07,9.11-24.15,22.71-40,50.16-54.31,78.58l1.51,2c2.74-.55,5.72-.58,8.17-1.73,20.06-9.49,38.19-22.08,55.84-35.41,6.75-5.1,13.59-10.11,20-15.6A101.06,101.06,0,0,0,728.09,290c4.78-5.72,11.72-8.61,18.11-6.31,5.28,1.89,8.21,6.19,8.67,11.69.19,2.27-.75,4.76-1.67,6.95-1.72,4.08-4.27,7.86-5.64,12-7.5,23-14.75,46-22.08,69.05-.5,1.57-1,3.14-1.67,5.35l42.73-7.11c-2.52-5.19-5.46-9.89-7.14-15-3.24-9.84-1-19.76,1.19-29.46,6.33-27.39,20.14-51.05,37.39-72.8,16.1-20.32,34.23-38.52,57.2-51.21,4-2.23,8.24-4.61,12.65-5.53,12.9-2.7,24.52,7,28.18,21.47,4,16.05-6,30.47-18.85,39.05-4.58,3.06-9.67,5.35-14.08,7.74,10.32,0,21.18.12,32-.05,4.47-.08,8.92-1,13.4-1.16,11.57-.32,20.87-5.77,29.61-12.63.39-.31.76-.66,1.15-1,2.67-2.08,5.64-4.66,8.63-1.13,2.71,3.18,1.12,6.55-1.32,9.39-1.18,1.36-2.5,2.6-3.76,3.9l-1.62.63.19.58ZM557.56,303.38l10.93-12-3.49-4-8.24,14.78c-.18.74-.37,1.47-.56,2.2ZM503.87,465.64a25.68,25.68,0,0,0-2.56.79c-35.63,15-70.49,31.55-103.59,51.6C367.33,536.44,338.63,557,316,584.89c-11.09,13.71-20.12,28.69-23.83,46-3.8,17.77-.63,35.06,7.42,51.3,9.28,18.69,21.74,35,38.93,47.06,17.7,12.37,37.83,19.11,59.15,22,19.4,2.67,38.83,2.9,58-1.92,30.88-7.79,56.43-24.84,79.34-46.35,28.48-26.74,51-58.14,71.14-91.35,36.11-59.49,64-122.82,87.78-188.08,2.1-5.76,4-11.6,6.26-18.26-5.62,1.35-10.17,2.22-14.57,3.59a9.19,9.19,0,0,0-4.53,3.35A276.79,276.79,0,0,1,629.62,469c-14.37,12-29.08,23.63-46.23,31.71-18.6,8.77-37.15,10.1-55.83.55-10.63-5.45-19.88-12.24-22-25.19C505,472.66,504.46,469.24,503.87,465.64Zm380.38-76.82a17.14,17.14,0,0,0,1.37-1.65c14.54-25.84,29.28-51.57,43.49-77.58,5-9.22,9.57-19,5.19-30.34-9.21,6.67-19.87,9.6-31.14,9.93-29.62.88-59.25,1.44-88.88,2.11-2.83.06-5.68-.16-8.49.08-1.3.11-3,.66-3.71,1.62-10.77,15.64-20.6,31.8-24.85,50.61-2.2,9.76-4.23,19.81,1.45,29.08,1.73,2.82,5.2,6.56,7.81,6.52,11.72-.22,23.73.48,34.88-4.31,9.27-4,18.45-8.22,27.56-12.56,5.68-2.71,9-2.83,11,.84,2.45,4.64-1.53,6.72-4.35,9.11-1.9,1.59-3.84,3.13-6.43,5.23C862.15,379.14,874.52,379.45,884.25,388.82ZM663.56,415.6l-.69-1.14c-.78.14-1.57.24-2.34.43-44.93,11.34-89.25,24.7-132.62,41.1-11,4.14-10.95,4.17-10,16.15.79,10.45,7,18.22,17.37,19.22,8.64.85,18,1.48,26.14-.77,28.45-7.81,54.71-19.94,74.32-43.32C644.73,436.5,654.26,426.14,663.56,415.6Zm-109-156.37c-12-.19-20.6,4.73-28.71,10.7-28,20.61-46.8,48.53-62.09,79.11-2,4-3,8.72-3.8,13.22-.35,2,.47,5.54,1.75,6.09,1.75.75,5,0,6.64-1.28,12.56-9.76,26-18.72,37.06-30,20.18-20.67,38.95-42.71,58.14-64.33,5.41-6.09,3.93-10.28-4-12.75A24.24,24.24,0,0,0,554.6,259.23Zm256.49,16.32.55.92a45,45,0,0,0,5.46-.3c16.51-2.83,31.95-8.55,45.73-18.15,7.82-5.46,14.66-12.07,17.23-21.7.69-2.59.89-6.87-.56-8-1.69-1.36-5.93-1.09-8.22.1-6.28,3.25-12.59,6.78-18,11.24-12.32,10.07-24.11,20.77-36.14,31.18C815.17,272.46,813.1,274,811.09,275.55Zm28.37,1c0,.28,0,.56.08.83h18.37c0-.27,0-.55,0-.83ZM947,316.18l-.57.86c.25.11.62.38.73.29a3.3,3.3,0,0,0,.61-.87Zm-396.15-4.37-.35-.34a3.34,3.34,0,0,0-.31.63c0,.08.2.21.3.32Zm170.61-2.37c-.11.1-.31.22-.3.3a3.71,3.71,0,0,0,.27.65c.11-.1.31-.22.3-.3A2.63,2.63,0,0,0,721.46,309.44Z"/><path class="cls-1" d="M376.31,269.73c5.09-3.05,10.47-5.7,15.15-9.27,3-2.29,6.11-3.14,8.43-1,1.95,1.77,2.85,5.26,3.1,8.09.17,1.82-1.48,3.94-2.65,5.71-8.5,12.86-17.09,25.67-25.62,38.51a6.34,6.34,0,0,0-1.18,4.62,26.35,26.35,0,0,0,2.42-2c17.11-18.22,35.44-35.1,55.68-49.8a130.21,130.21,0,0,1,16.09-9.92c8.44-4.44,16.81-1.58,24.86,1.51,1.21.47,2.32,3.79,1.92,5.41-2.22,9-9.58,13-18.67,12.14a23.16,23.16,0,0,0-12.8,2.6c-25,14.1-46.37,32.7-65.27,54.28a361.61,361.61,0,0,0-42.68,60.57c-1.08,1.91-3.65,3.14-5.75,4.26-4.22,2.26-8.64,4.13-12.88,6.34-2.92,1.52-6,4.25-8.94,1.26s-2-6.76,0-10.15c8.35-14.14,17.07-28.08,25-42.46,9.1-16.52,17.65-33.35,26.12-50.2,2.85-5.66,4.21-11.83,1.38-17.69-9.05,4-17.94,8.38-27.16,11.89-25.59,9.75-52.33,11.93-79.43,11-12-.4-23.82-1.84-34.83-7.13-8.18-3.93-8.82-9.6-1.51-14.82a92.92,92.92,0,0,1,8.62-4.86c6.07,9.13,15.49,11.35,24.78,12.58,26.66,3.53,52.7.53,77.53-10.14,15.88-6.81,29.27-16.52,34.86-34,4.05-12.66,4.1-25.55,1.73-38.49-5.72-31.33-23.37-55.69-46-76.8A374.13,374.13,0,0,0,211.33,61.16c-35.31-15.31-72-24-110.64-22.56-12,.43-23.81,2.56-34.61,8.2C49.75,55.33,41.76,69.61,40.22,87.38c-2.18,25.19.64,49.76,11.84,72.86,2,4.17,4.61,8.13,6.07,12.48.73,2.18-.49,5-.83,7.55-2.65-.8-6-.84-7.84-2.53-8.63-7.87-14.17-17.84-17.95-28.82-6.62-19.21-9.89-38.9-8.82-59.28,1.24-23.55,14.28-39.29,33.45-51,19.64-12,41-15.88,63.89-14.78,46.37,2.22,89.71,15.28,130.74,36.11a366.61,366.61,0,0,1,87.09,61.69c17.1,16.28,32.72,33.61,42.58,55.36,10.18,22.46,13.89,45.79,6.23,69.67-2.52,7.87-7.83,14.84-11.86,22.22l-1.06,1.29-.52,1,1.26-.14Zm-3.64,47.47.34-.33a2.7,2.7,0,0,0-.63-.28c-.08,0-.2.19-.3.29Z"/><path class="cls-2" d="M1249.92,536.23l2.4-2.7,2.48-2.57c5.08-6.46,10-13,15.28-19.35,3.69-4.47,8-8.41,11.55-13,2.39-3.14,3.36-7.37,5.77-10.49,5.53-7.14,11.58-13.88,17.36-20.83a57.88,57.88,0,0,0,3.28-5.11c-11.49,5-17.31,14.38-25.07,21.47-2.94,2.69-4.87,6.08-9.77,6.5-2.81.25-5.37,3.47-8,5.36l-5.15-.07c5.42-6,10.93-11.91,16.24-18,9.25-10.6,18.84-21,27.42-32.08,7-9.06,12.3-19.39,19.09-28.63,12.65-17.22,26.11-33.85,38.67-51.14,4.91-6.76,8.18-14.7,12.45-21.94,1.28-2.18,3.77-3.62,5.1-5.78a59.45,59.45,0,0,0,5.61-12c-14.21,12.35-21.38,30.1-33,43.93l-6.62-4.45.67-2.29-7.09,4.38-1.15-.89c2.3-3.23,4.32-6.71,7-9.63,3.53-3.91,7.62-7.31,11.31-11.09,2.7-2.75,4.92-2.45,7.42,1,11.76-15.64,21-32.21,25.12-51.39.91-4.28,2.49-8.47,2.88-12.78.93-10.45,1.5-20.94,1.91-31.43.28-7.39,0-14.81,0-21.19,8-6.38,3.48-14.34,5.64-21.6,1.08,3.58,3,7.14,3.09,10.74.18,8.62-.37,17.26-1,25.86-.17,2.25-2.8,4.64-2.38,6.54.78,3.53,3,6.75,5.07,11.08,5.08-11.21,9.63-21.26,14.17-31.3l2,.31a34.16,34.16,0,0,1,1.2,4.81c.79,7.94,1.11,16,2.31,23.84.65,4.3,2.73,8.38,4.63,13.93l4.47-19.31,1.36-.21a32.74,32.74,0,0,1,2.43,4.25c4.18,10.64,3.54,21.6,1.51,32.49-3.28,17.64-6.89,35.15-13.44,52-4.86,12.49-12.79,22.86-20.35,33.5-12.57,17.69-24.91,35.64-38.77,52.3-16.42,19.72-34.61,38-51.5,57.31-7,8-15.78,13.46-23.43,20.4-11,10-21.33,20.69-32.17,30.85-1.65,1.54-4.52,1.79-6.83,2.64Z"/><path class="cls-3" d="M1044.74,254.44c-10.84-3.43-21-2.87-30.47,4.29-2.71,2-5.93,3.41-8.91,5.1-.72-2.29-2.12-4.6-2-6.85,1-26.08,9.66-49.33,26.63-69.18,5.33-6.23,11.62-11.69,17.79-17.15,1.84-1.63,4.77-2,7.21-3,9.4-3.73,18.72-7.68,28.22-11.16,24-8.77,48.77-11.07,73.48-8.08,1.1,1,2,2.58,3.34,3,10.48,3.28,21.31,6,28,15.75,1.75,2.55,2.54,5.74,3.06,9.47-8.3-7.61-17.81-8.05-27.65-7l-.51,1.36c3.91,1.46,7.94,2.68,11.71,4.45,11.56,5.44,49.93,32.44,53.91,44.83.5,1.56,1.18,3.73.5,4.82-.83,1.32-4.14,2.78-4.43,2.45-2.37-2.64-34.28-24.21-36.21-27.21-1.37-2.14-2.18-4.7-3.76-6.65-1.89-2.35-4.33-3.84-4.58-7.62-.26-4.09-5.25-5.43-8.58-2.94-.61.45-1.53,1.24-2,1-5.38-2.31-9.48,1.53-14.17,2.65-7.74,1.84-15.68,2.84-23.49,4.45-13,2.66-25.92,5.51-38.87,8.32a3.65,3.65,0,0,0-2.17,1.15c-6.8,10.36-17.56,18.11-20.11,31.35-.7,3.59-2.73,7.23-8.15,5.91-1.26-.3-3.18,2.1-5,3.43-1.67-2.75-1.25-4.93,2-5.88,3.58-1,4.33-3.59,4.58-6.8a14,14,0,0,1,1.23-5.19c1.76-3.45,2-6.63-.9-10.27C1051.3,223.93,1047,238.66,1044.74,254.44Z"/><path class="cls-1" d="M256.49,134.94c1.91-.45,3.75-.38,4.89-1.24,3.77-2.83,4.9-.77,5.57,2.6a40.08,40.08,0,0,1-1.76,21.45c-14,40.78-31.73,79.87-51,118.4-13.2,26.43-26,53-42.57,77.55C158,373.92,143.1,393,122.72,407c-12.91,8.89-27.1,13-42.5,9.2-13.5-3.31-21.95-13.12-27.66-25.31-1.37-2.91-1.32-6.35,2-8.41s6-.5,8.56,1.65c5.15,4.41,10.15,9,15.44,13.24,7.89,6.29,29.75,2,38.87-6.62,14.55-13.7,26.27-29.54,36.7-46.35C190,286.57,221.2,226.29,246.61,163.08c1.85-4.59,3.56-9.24,5.2-13.91S254.92,139.74,256.49,134.94Z"/><path class="cls-3" d="M1031.13,274.2l1.93.41,1.36.68h1.17l1.38-.69,5-2.23c1,1.06,2.12,2.08,3.08,3.21,1.83,2.15,3.6,4.38,5.39,6.57l0-.06,1.58,2.33.25.12v.29l1.88,2.56,0,0,3.09,4,0,0c.05,5.44,2.36,8.79,8.2,8.87l0,0c-.46,6.12-.46,6.12,2.16,7.55.26-1.44.52-2.9.78-4.37l2.74,2.42,1.62,1.56,2.42,1.24,2.28,2.67,0,0c-.12,3.81,2.6,3.18,4.93,3.15l0-.05v4.28l5-1.17,0,0,2.4,1.92,1.57.3c3.33,5.81,7.48,10.23,15,8.81h0l5.32,4.62.07,0c0,.27,0,.54,0,.8l.63-.42,2,1.67a5.24,5.24,0,0,0,.77.43l10.32,5.75-2.44,2.08c1.08.06,2.13-.21,2.57.19,5.46,4.92,12.26.74,18.14,2.7.41.13,1.19-.86,1.8-1.33l1.87,1.37c2.31,2,4.78,4,3.07,7.66-.14.29.62,1,1,1.52l0-.06,2,1.1,2,.88,4.19,2,6.85,2.85,1.86,2.22,7,4.22,2.55,1.62,2.55,2.1-4.35,1.24a.85.85,0,0,1-.72-.33l-2.1-.77-1.94-.52-.82-.56-2-.2-3.11-2-3-1.75-1-.22-2-.88-4-1.71-9.13-3.1,0,0c-3.89-2.37-7.73-4.85-11.74-7-.7-.38-2.08.52-3.15.83l-6-2.31-2.36-1.49-1.63-.45c-.14-3.06-1.67-3.26-4-1.93l-2-.93-4.11-1.68h-1.62l-4.3.8-3-1.27-6-6.66,2.66-5.3-.81-.82-6.85,6.09h-2l-1-.24c0-4.77-3.47-3.6-6.23-3.66l-.41,0-.36-.21c-.08-1.45-.16-2.89-.25-4.61l-6.72.62-3-1.06c-.79-3.55-3.06-3-5.9-2.25l2.77,4.85-3.51,1.8c3.38,1.65,7.71,2.77,10.6,5.44s4.48,7,6.57,10.63c0,.08-.68.6-1,.91L1076,350l-2.1-1.5,0,0c-.32-5.43-4.38-4.83-8-5l-6.91-3.69c-1.54-3.76-3.82-6.48-8.38-6.08l.15,0-2.21-1.27-1.7-.77-.88-.37-2-1-3.31-2.92-1.81-1.74-2.86-2.38-2-1.14-6.54-5-2.44-3-2.09-2.89,0,0c.41-3.17-.79-5-4.17-4.91l.05,0c-.49-1.09-1-2.18-1.48-3.26l-1.47-1.88c-.35-.66-.7-1.32-1.06-2l-1.77-3.08c.3-1.33,1.32-3.36.81-3.87-3.46-3.48-3-6.21,1.15-8.32l-2-4.77a.33.33,0,0,1,.5-.17c2.14.11,4.66.83,4.49-2.79l2.72-1.18,2.26-.82,1.5-.16Zm15.56,49.65c0,.34,0,.67,0,1h7.67c0-.33,0-.66,0-1Zm96.47,30.9.81,1.73,3-1.67-.65-1.35ZM1099.53,338v.92h2.89V338ZM1050,331.59c.79-.83,1.42-1.21,1.53-1.72.08-.34-.59-.84-.92-1.27-.46.36-1.14.63-1.31,1.1S1049.61,330.68,1050,331.59ZM1130.79,351c1,.71,1.41,1.27,1.86,1.28a9.35,9.35,0,0,0,2.51-.74c-1.06-.59-1.44-1-1.84-1A14,14,0,0,0,1130.79,351Zm-99-37.93c-.69.73-1.41,1.18-1.36,1.51a2.13,2.13,0,0,0,1.1,1.36c.23.1,1.13-.56,1.18-.94S1032.31,314,1031.83,313.05Zm-3-2.74c-.58-.33-1.08-.8-1.28-.7-.43.22-.69.74-1,1.14.4.16.83.47,1.21.43S1028.35,310.7,1028.82,310.31Zm49.77,5.83-.83-.36c-.12.28-.39.62-.31.82s.5.25.78.37Z"/><path class="cls-4" d="M824.79,582.45c-.65,6.16-9.33,17.36-14.84,17.6-3.11.14-7-1.72-9.4-3.95-10-9.46-17-21.27-22.26-33.8-3.35-8-7.78-11.78-16.4-10a13.4,13.4,0,0,1-2.63,0c-.92,6.46-1.6,12.72-2.75,18.9-1.72,9.25-7.88,14.46-16.53,17.17l-2-2c5.63-7.35,7-16.06,8.07-24.91,1.28-11,2.74-22,3.92-33,.89-8.26,1.47-16.56,2.19-24.91-11.73.62-31,7.65-32.39,19.61-.66,5.59.75,11.42,1.22,17.14v1.09l-8,7-2.84-.06c-4.1-13.31,2.19-30.08,13.45-38.78,16-12.34,34.56-15.29,54-13.93a44.33,44.33,0,0,1,17.49,4.81c13.45,7.28,13.83,22.27,5.75,33.1-4.33,5.81-10.63,10.15-16.53,15.62,6.17,10.58,12.52,22.58,19.94,33.87,6,9.16,11.35,8.58,17.66-.67Zm-65-37.14c10.22,1.76,19.93,3.58,27.72-5.64,6.89-8.18,9.81-20.56,2.56-29.27-5.63-6.75-13.89-7.38-22-8.12-3.31-.3-4.19,1.2-4.33,4.36-.2,5-1.06,10-1.59,15C761.39,529.44,760.62,537.2,759.79,545.31Z"/><path d="M912.05,532.63c7.76-4,15.86-5.37,24.44-3.23a20,20,0,0,0,3.48.23l1.1,2.8c-1.37,10-2.83,20-4.08,30-.84,6.81-1.31,13.67-2.08,20.49-1.26,11.17-2.69,22.32-3.92,33.49-.81,7.32-1.44,14.66-2,22-.18,2.32,0,4.67,0,7l0,3.1-9,7-2.84-.06c.69-7.46,1.28-14.93,2.08-22.38.83-7.76,1.85-15.51,2.79-23.26,1.3-10.66,2.72-21.3,3.83-32,.24-2.38-.57-4.86-.9-7.3l-1-3a38.31,38.31,0,0,0,2.08-5.8c1.18-6.14,1.49-12.52,3.36-18.42,1.56-5-.48-6.36-4.37-6.92s-8.06-.67-12.1-1Z"/><path class="cls-5" d="M1283.87,442.41c-6.78,11.3-11.74,23.66-20.88,33.6-3.37,3.67-4.82,9-7.7,13.25-1.94,2.84-4.9,5-7.28,7.52-1.06,1.14-1.66,2.73-2.78,3.79a47.21,47.21,0,0,1-5.85,4.58c-.33.22-1.92-.55-1.93-.89a7,7,0,0,1,.71-3.19c2.18-4.25,4.1-8.7,6.8-12.6,5-7.21,1.73-13-2.89-18.88,2.54,7.85.17,14.53-3.14,21l-2,0c-1.47-6-5-12.4-3.84-17.78s1.17-9.56-1-14.37c-.68-1.54.51-3.82.45-5.74a13.26,13.26,0,0,0-4.66-10.32c-4.27-3.88-7.6-9.06-10.38-14.2-1.36-2.51-.55-6.2-.75-9.79,3.76,2.57,7.49,4.55,6.89,10-.43,4,1.7,5.69,5.78,5.15a16.64,16.64,0,0,1,4,.12c2.69,5.54,4.81,10.46,7.42,15.09,2.28,4,5.34,7.62,7.63,11.65,1,1.76,1,4.11,1.42,6.21.47,2.54.84,5.09,1.27,7.72,6.12-.23,9.5-1.7,9.19-7.83-.09-1.89,1.45-4,2.66-5.78,3.16-4.56,6.14-9.35,10-13.27,2.65-2.71,6.63-4.12,10-6.11C1283.29,441.7,1283.58,442.06,1283.87,442.41Z"/><path class="cls-6" d="M1183.34,581.46c1.55,5.87-1.91,8.41-4.8,10.68-5.23,4.1-10.23,9.16-18.17,6.39-4.76-1.66-6.06-5.44-6.16-9.41a167.08,167.08,0,0,1,1-19.73c.76-8.1,1.93-16.17,2.9-24.25.25-2.08.44-4.17.69-6.62h-16.06c5.13-5.32,8.66-11.31,17.07-8.7.17-2.23.46-4,.41-5.73-.21-7.68,4.59-10.44,11.56-11.33-.6,5.32-1.21,10.81-1.86,16.54h30.29c-3.81,4.44-6.27,10.26-13.88,9.2-5.39-.74-11-.14-17.12-.14-.74,5.35-1.54,10.72-2.19,16.12-1.06,8.74-2.46,17.47-2.77,26.24-.12,3.35,1.66,7.41,3.9,10,2,2.28,8.29-.46,10.93-3.88C1180.26,585.24,1181.56,583.69,1183.34,581.46Z"/><path d="M1079.07,585.43c-6.38,10-23,18.8-33.14,10.93-5.33-4.12-7.36-9.88-7.75-16.09-.91-14.23,5.38-26,13.59-37,5.13-6.85,10.92-12.74,19.72-15,4-1,8.51-2.07,10.78,1.42a15.88,15.88,0,0,1,2,11.37c-1.33,5.06-4.72,9.58-7.23,14.33l-3-1c.36-1.22.64-2.47,1.11-3.65,1.77-4.46,1.86-8.86-2.19-11.94s-8.52-2.06-12.24.6c-7.64,5.46-9.88,14-11.67,22.58-.13.59,2.14,2.39,3.3,2.4a81,81,0,0,0,9.66-.95c.33,1,.67,2,1,3l-11.31,4.92c-2.09.91-3.2,2-2.58,4.77,3.62,16.18,16.8,16.2,26.82,8.24Z"/><path class="cls-7" d="M1375.88,184.76h-12.82c.66-1,1.31-2,2.48-3.83l-17.42-5.1-.94,1.46,3.7,2.15c-5.08,0-9.2.12-13.3-.07-1.49-.07-2.94-.9-4.41-1.38l3.28-3.83a15.07,15.07,0,0,0-11.87.1c-4.57,1.86-9.63,5.15-13.95,4.46-9.27-1.48-43.89,30-52.33,31a2.73,2.73,0,0,0-.5.05c-2.81.92-5.62,1.87-8.45,2.72a1.42,1.42,0,0,1-1.27-.54c-1.45-3.31-2.82-6.66-4.3-10.19,15.73-10.19,60.46-33.57,77.91-34a18.7,18.7,0,0,0-.62-2.13,21.51,21.51,0,0,0-1.14-1.94c9-3,17.1-2.72,25,2.54,2.48,1.65,5.71,2.14,8.41,3.52,4.67,2.38,9.34,4.83,13.75,7.66C1370,179.3,1372.53,181.92,1375.88,184.76Z"/><path class="cls-8" d="M1145.2,344.84c-.61.47-1.39,1.46-1.8,1.33-5.88-2-12.68,2.22-18.14-2.7-.44-.4-1.49-.13-2.57-.19l2.44-2.08,5.47,2,.69-1.34c-1.4-1-2.77-2.09-4.2-3.06-9.71-6.5-19.54-12.83-29.09-19.55-4-2.83-7.44-6.48-11.12-9.75-.87-.78-1.58-1.94-2.59-2.3-7.91-2.87-11.74-10.06-15.84-16.3-3.1-4.73-3.9-11.1-5.19-16.85-1.17-5.26-1.63-10.69-2.54-17,6,2.59,5.67-2.34,7.52-4.64l2.65,1.94-.84,6c-.15,1.63-.29,3.26-.44,4.89l.36,5.14-1,5c.53,3,1.07,5.82,5.06,6.36,1.31.18,2.72,1.84,3.53,3.17,8,13.12,19.13,23.23,30.53,33.16,3.83,3.33,7.8,6.52,11.42,10.08C1127,335.5,1136,340.3,1145.2,344.84Z"/><path d="M979,536.45c-1.36,12.75-2.8,25.49-4,38.24a67.48,67.48,0,0,0,0,10.92c.26,3.78,3.19,4.42,6.11,3.76,2.4-.54,4.6-2,6.9-3l1.77,2.56c-4.93,3.31-9.63,7-14.85,9.79a7.35,7.35,0,0,1-10.74-6.63A171.67,171.67,0,0,1,965.34,574c.73-7.09,1.82-14.15,2.75-21.22q.52-4.1,1-8.21c.72-6.32-1.27-8-7.06-6.09-.34-1-.68-2.05-1-3.08,3.34-2.46,6.5-5.26,10.11-7.21,1.45-.79,3.9.26,5.9.47l.79.79q.62,3,1.24,6Z"/><path class="cls-9" d="M852,565.43c-3.95,2-7.83,4.13-11.88,5.89-2.37,1-3.71,1.84-2.95,4.92,1.48,6,3.93,11.41,10.29,12.91s12.19-.75,16.86-5.53c.8-.82,1.74-1.48,2.62-2.22l2.93.94c-4.58,4.45-8.61,9.76-13.88,13.13-7.25,4.64-14.6,6.11-22.21.87-5.12-3.53-7.15-9.13-7.57-14.66C825.08,566.49,831,553.6,841,542.41l2.95,1c-2.16,5.62-4.27,11.27-6.5,16.87-1.29,3.24.14,4.5,3.13,4.19,3.53-.36,7-1.14,10.51-1.75Z"/><path d="M1023.05,530.43c-1.9,12-3.83,24-5.68,36-.89,5.78-1.91,11.57-2.36,17.4s.33,6.38,6,4.51c.34,1,.68,2,1,3.07-2.53,2.25-4.77,5.06-7.69,6.54-2.09,1.06-6.19,1.43-7.42.17-1.81-1.85-2.67-5.47-2.48-8.25.36-5.58,1.77-11.08,2.58-16.64.13-.88-.63-1.89-1-2.84l-3.07-1c2.48-6.9,5.17-13.73,7.37-20.72a48.22,48.22,0,0,0,1.7-10.53c.58-6.9.87-7.29,9.94-9.52C1022.33,529.24,1022.69,529.83,1023.05,530.43Z"/><path d="M917.07,580.43c-6,9.07-14,15.86-24.56,18.73-5.46,1.49-10.6-2.17-11.3-12-1.09-15.34,3.25-29.18,13.59-40.82,2.21-2.48,4.79-4.63,7.19-6.93.33,1,.66,2,1,3-6.63,11.41-10.88,23.52-10,36.89.2,3,1.18,7.31,3.25,8.48s6.09-.49,8.8-1.84c3.27-1.63,6-4.25,9-6.45Z"/><path d="M1121,590.38c4.61-6.14,1.67-12.24-4.85-20.37-4-5-8.61-9.46-12.38-14.59-5.18-7-2.58-17.86,5.24-22l2.06,2.06c-2.91,5.9.47,10.25,3.84,14.38,4.44,5.45,9.28,10.57,13.81,16,8.88,10.56,2.4,22.79-6.69,27.7C1121.68,592.43,1121.33,591.41,1121,590.38Z"/><path class="cls-10" d="M1080.5,351.64c.36-.31,1.09-.83,1-.91-2.09-3.63-3.63-7.89-6.57-10.63s-7.22-3.79-10.6-5.44l3.51-1.8-2.77-4.85c2.84-.79,5.11-1.3,5.9,2.25-.26.69-.9,1.85-.72,2,4.66,3.76,9.16,7.82,14.21,11,7.12,4.46,14.78,8.05,22,12.43,2.28,1.4,3.3,4.95,5.61,6.16,11,5.75,22.16,11,33.22,16.5,5.53,2.76,10.93,5.77,16.38,8.66l-.7,2c-12.15-5.15-24.37-10.12-36.42-15.5-13.08-5.85-26-12-39-18.2C1083.72,354.43,1082.18,352.88,1080.5,351.64Z"/><path class="cls-11" d="M843.93,543.4l-2.95-1c5.32-8.59,12.79-14.07,23-14.87,5.83-.46,8.76,2.46,8.95,8.35.33,10.3-5.17,17.83-12.43,24.23-2.46,2.17-5.62,3.56-8.46,5.31-.33-.91-.65-1.81-1-2.72,5.84-3,11-6.8,12.73-13.61.89-3.57,1-7.77-2.51-9.7a14.34,14.34,0,0,0-9.41-1.17C849,538.92,846.56,541.59,843.93,543.4Z"/><path class="cls-5" d="M1288.67,430.13a19.74,19.74,0,0,1,9.75-11.26c3.82-2.08,8.5-4,5.93-10.07a3.45,3.45,0,0,1,.6-2.82c4.61-5.77,9.27-11.5,14.08-17.1.56-.65,2.14-.41,3.49-.62l-5.35,11c-.9,1.86-1.08,3.3,1.73,3.07l1.16,1.15c-1.34,1.84-2.67,3.7-4,5.51-3.16,4.18-6.39,8.29-9.48,12.52-2.21,3-3.24,6.89-8.73,6-2.29-.36-5.09,2.54-7.66,4Z"/><path class="cls-12" d="M1175.7,373.58l4.35-1.24,26.8,25.84c-4.38,5.62,2.63,9.5,2.29,14.84-8.52-3.92-10.57-12.73-15.27-19.28-11.13,1.89-15.37-6.81-21.06-13.24l2.46-1.23,8.49,3c.36-.54.72-1.08,1.07-1.62Z"/><path class="cls-13" d="M874.53,452.49c-1.63,4.73-3,9.54-4.94,14.15-1.62,3.94-14.08,9.13-17.77,7.48-2.61-1.17-4.29-3.29-2.62-6.38,1.16-2.17,2.57-4.22,3.86-6.32H854l1,0c3.34.76,10.26-2.74,12-6.07Z"/><path d="M738,586.44l2,2,14,1.23.06,2.82c-4.38,8-12,5.79-18.8,5.8-4.73,0-9.46-.68-14.18-1.06l-.06-2.82c2.88-4.09,6.3-6.81,11.84-6C734.44,588.58,736.28,587.13,738,586.44Z"/><path class="cls-14" d="M1260,495.42l5.15.07c-7.77,8.37-15.46,16.8-23.33,25.07a99.15,99.15,0,0,1-7.83,6.74l-.06-3Z"/><path d="M1118,596.2c-8.62,3.69-17.27,5.08-26,.26v-3.08l6-5h1.08c5.33,4,11.22,6,18,5C1117.32,594.31,1117.65,595.25,1118,596.2Z"/><path d="M1113.05,530.64c7.78-4.39,15.82-3.94,24-1.26v1.08l-6,6H1130c-5.08-2.27-10.26-4-16-3Z"/><path class="cls-15" d="M855,461.46l-1,0c0-.45-.05-.9-.07-1.35.36-.91,1.16-1.9,1-2.71-1.22-6.33,2.87-9.7,7.05-13.06,2.1,2.8,7,4.05,5,9.1h0C863.31,456.55,858.06,457.37,855,461.46Z"/><path class="cls-16" d="M1003,569.41l3.07,1-16.27,18.51L988,586.38Z"/><path class="cls-16" d="M867,453.41c2-5.05-3-6.3-5-9.1l2.13-2.17c6.64,3.17,9.26,3,12.59-1l1.54,2.85-4.17,5.42Z"/><path class="cls-17" d="M929,648.46l0-3.1,14.43-11.74.67.88c.35,3.19-1.18,4.93-4,6.46C936.24,643.11,932.72,645.93,929,648.46Z"/><path class="cls-18" d="M1175.7,373.58l9.13,7.07c-.35.54-.71,1.08-1.07,1.62l-8.49-3-7.3-6.74.15-1.33,2,.2.82.56,1.94.52,2.1.77A.85.85,0,0,0,1175.7,373.58Z"/><path class="cls-14" d="M1389.64,202.85,1383,214.6c-3.48-3.79-1.39-9,5.12-12.44Z"/><path class="cls-10" d="M1013,279.44l2,4.77c-4.19,2.11-4.61,4.84-1.15,8.32.51.51-.51,2.54-.81,3.87l-5-13.61Z"/><path class="cls-19" d="M1161,389l.7-2c5.49,3,11.63,5,16.67,8.73l-1.1,1.87Z"/><path class="cls-14" d="M1320.06,403.51l-1.16-1.15,10.84-12.81,1.32,1.14C1329.91,397,1323.8,399.3,1320.06,403.51Z"/><path class="cls-16" d="M1022,591.45c-.35-1-.69-2.05-1-3.07l8.45-11.54C1031.88,580,1029.1,585.58,1022,591.45Z"/><path class="cls-17" d="M917.07,580.43l-3-1,10-12,1,3Z"/><path class="cls-17" d="M1063,566.46c-.34-1-.68-2-1-3l12-9,3,1Z"/><path class="cls-10" d="M1106.05,328.38c-7.56,1.42-11.71-3-15-8.81Z"/><path class="cls-16" d="M961,535.38c.35,1,.69,2,1,3.08l-7.7,10.26C951.89,545.36,953.75,541.4,961,535.38Z"/><path class="cls-17" d="M903,542.36c-.34-1-.67-2-1-3l10.06-6.73,1,2.72Z"/><path class="cls-19" d="M1233.94,524.34l.06,3-8.55,10.59-1.4-1C1225.94,531.75,1230.94,528.72,1233.94,524.34Z"/><path class="cls-17" d="M1079.07,585.43l-3.11-1,7.93-10.27C1086.4,580,1082.36,582.58,1079.07,585.43Z"/><path class="cls-14" d="M1070.89,254.39l-2.65-1.94q1.82-4.71,3.62-9.41l1.72.54C1074.81,247.56,1073.06,251,1070.89,254.39Z"/><path class="cls-19" d="M1288.67,430.13l1.48,1.42q-3.15,5.43-6.28,10.86c-.29-.35-.58-.71-.88-1.06.81-2.71,4.84-4.16,3-8.05C1285.73,432.79,1287.72,431.21,1288.67,430.13Z"/><path class="cls-14" d="M1249.92,536.23l1.12,4.21-7.41,6.43-1.44-1.33Z"/><path class="cls-8" d="M1131,355.35c1.07-.31,2.45-1.21,3.15-.83,4,2.17,7.85,4.65,11.74,7Z"/><path class="cls-10" d="M1050.4,282.15c-1.79-2.19-3.56-4.42-5.39-6.57-1-1.13-2-2.15-3.08-3.21l2.56-1.08a44.92,44.92,0,0,1,3.57,5A49.3,49.3,0,0,1,1050.4,282.15Z"/><path class="cls-14" d="M1168,372.53l7.3,6.74-2.46,1.23a33.05,33.05,0,0,1-4.27-4.26C1167.9,375.32,1168.13,373.78,1168,372.53Z"/><path class="cls-10" d="M1065.29,300.18c-5.84-.08-8.15-3.43-8.2-8.87Z"/><path class="cls-8" d="M1151.1,355.39c-.34-.52-1.1-1.23-1-1.52,1.71-3.7-.76-5.64-3.07-7.66a14.33,14.33,0,0,1,2.87.7C1154.4,349,1154.71,351.44,1151.1,355.39Z"/><path class="cls-8" d="M1096,339.42l6,6.66-11-5.68.14-.16Z"/><path class="cls-10" d="M1065.94,343.56c3.62.13,7.68-.47,8,5Z"/><path class="cls-10" d="M1074,331.32l6.72-.62c.09,1.72.17,3.16.25,4.61Z"/><path class="cls-10" d="M1050.65,333.79c4.56-.4,6.84,2.32,8.38,6.08Z"/><path class="cls-15" d="M867,453.41l7-4,.48,3.08-7.52,2.9v-2Z"/><path class="cls-8" d="M1145.9,361.51l9.13,3.1Z"/><path class="cls-10" d="M1068.19,303.32c-.26,1.47-.52,2.93-.78,4.37-2.62-1.43-2.62-1.43-2.16-7.55Z"/><path class="cls-10" d="M1027.47,317.31l6.54,5Z"/><path class="cls-11" d="M869.91,582.34,867,581.4l4.35-7.06C874.85,578.18,871.51,580.08,869.91,582.34Z"/><path class="cls-20" d="M1118,596.2c-.32-1-.65-1.89-1-2.83l4-3c.34,1,.69,2,1,3.08Z"/><path class="cls-20" d="M1113.05,530.64l1,2.82-3,2-2.06-2.06Z"/><path class="cls-10" d="M1081.78,335.5c2.76.06,6.25-1.11,6.23,3.66Z"/><path class="cls-10" d="M1087.07,317.38l-5,1.17v-4.28Z"/><path class="cls-10" d="M1111.36,333l-5.32-4.62Z"/><path class="cls-10" d="M1018.8,306.57c3.38-.05,4.58,1.74,4.17,4.91Z"/><path class="cls-14" d="M1069.61,265.29c.15-1.63.29-3.26.44-4.89C1069.9,262,1069.76,263.66,1069.61,265.29Z"/><path class="cls-10" d="M1082.14,314.32c-2.33,0-5.05.66-4.93-3.15Z"/><path class="cls-14" d="M1069,275.42l1-5Z"/><path class="cls-8" d="M1117.09,349.17c2.28-1.33,3.81-1.13,4,1.93Z"/><path class="cls-8" d="M1105,347.35l4.3-.8Z"/><path class="cls-8" d="M1111,346.56l4.11,1.68Z"/><path class="cls-10" d="M1057.13,291.34l-3.09-4Z"/><path class="cls-8" d="M1167.94,364.4l-1.86-2.22,3.71,1.45Z"/><path class="cls-10" d="M1040.68,327.54l3.31,2.92Z"/><path class="cls-8" d="M1159.23,359.33l-4.19-2Z"/><path class="cls-20" d="M824.79,582.45,822,582.4c0-.81.1-1.61.21-3.53Z"/><path class="cls-20" d="M754,592.46l-.06-2.82h3.39Z"/><path class="cls-17" d="M917.22,655.38l2.84.06-2.84,3.35Z"/><path class="cls-20" d="M721,594.38l.06,2.82h-3.4Z"/><path class="cls-20" d="M710.22,548.38l2.84.06-2.84,3.33Z"/><path class="cls-10" d="M1017.37,303.34c.5,1.08,1,2.17,1.48,3.26C1018.36,305.51,1017.87,304.42,1017.37,303.34Z"/><path class="cls-20" d="M1092,593.38v3.08l-1.93-.79Z"/><path class="cls-16" d="M1023.05,530.43c-.36-.6-.72-1.19-1.07-1.79l2.52-1.52Z"/><path class="cls-10" d="M1077.25,311.21l-2.28-2.67Z"/><path class="cls-16" d="M868,437.39l-2.31,2.94Z"/><path class="cls-17" d="M941.07,532.43l-1.1-2.8Z"/><path class="cls-10" d="M1036,323.42l2.86,2.38Z"/><path class="cls-10" d="M1022.94,311.46l2.09,2.89Z"/><path class="cls-14" d="M1254.8,531l-2.48,2.57Z"/><path class="cls-8" d="M1162,367.42l3,1.75Z"/><path class="cls-10" d="M1014.84,299.48c.36.66.71,1.32,1.06,2Z"/><path class="cls-10" d="M1054.06,287.39l-1.88-2.56Z"/><path class="cls-10" d="M1051.94,284.42l-1.58-2.33C1050.89,282.86,1051.41,283.64,1051.94,284.42Z"/><path class="cls-8" d="M1159,366.32l2,.88Z"/><path class="cls-8" d="M1177.5,370.24l-2.55-1.62Z"/><path class="cls-8" d="M1153,356.43l-2-1.1Z"/><path class="cls-10" d="M1089.44,319.27l-2.4-1.92Z"/><path class="cls-10" d="M1073.91,348.48l2.1,1.5Z"/><path class="cls-8" d="M1122.67,351.55,1125,353Z"/><path class="cls-8" d="M1089.06,339.4h2a3.54,3.54,0,0,0,.16.85l-.14.16Z"/><path class="cls-10" d="M1048.59,332.56l2.21,1.27Z"/><path class="cls-20" d="M1137,530.46v-1.08l1.68.69Z"/><path class="cls-10" d="M1072.55,307.3l-1.62-1.56Z"/><path class="cls-17" d="M943.43,633.62l1.36-.88-.69,1.76Z"/><path class="cls-20" d="M1130,536.44h1.08l-.71.76Z"/><path class="cls-10" d="M1114.81,335.45a5.24,5.24,0,0,1-.77-.43A.63.63,0,0,1,1114.81,335.45Z"/><path class="cls-16" d="M979,536.45v-1.07l.76.71Z"/><path class="cls-20" d="M721,541.46v-1.09l.76.72Z"/><path class="cls-10" d="M1112,333.35l-.63.42c0-.26,0-.53,0-.8A.45.45,0,0,1,1112,333.35Z"/><path class="cls-16" d="M977.79,529.43l-.79-.79Z"/><path class="cls-20" d="M1099.05,588.4H1098l.71-.76Z"/><path class="cls-16" d="M853.91,460.08c0,.45.05.9.07,1.35h-.92Z"/><path class="cls-10" d="M1046,331.42l.88.37A1.13,1.13,0,0,1,1046,331.42Z"/><path class="cls-18" d="M556.76,302.18,565,287.4l3.49,4-10.93,12Z"/><path class="cls-18" d="M839.46,276.52H857.9c0,.28,0,.56,0,.83H839.54C839.51,277.08,839.48,276.8,839.46,276.52Z"/><path class="cls-10" d="M1018,276.48c.17,3.62-2.35,2.9-4.49,2.79Z"/><path class="cls-10" d="M1031.13,274.2l-6.64.12Z"/><path class="cls-18" d="M557.56,303.38l-1.36,1c.19-.73.38-1.46.56-2.2Z"/><path class="cls-10" d="M1023,274.48l-2.26.82Z"/><path class="cls-10" d="M1037,274.6l-1.38.69Z"/><path class="cls-10" d="M1034.42,275.29l-1.36-.68Z"/><path class="cls-10" d="M1091.17,340.24a3.54,3.54,0,0,1-.16-.85l6.85-6.09.81.82-2.66,5.3Z"/><path class="cls-10" d="M1046.69,323.85h7.64c0,.34,0,.67,0,1h-7.67C1046.7,324.52,1046.7,324.19,1046.69,323.85Z"/><path class="cls-8" d="M1143.16,354.75l3.12-1.29.65,1.35-3,1.67Z"/><ellipse class="cls-8" cx="1100.97" cy="338.42" rx="2.04" ry="0.65"/><path class="cls-10" d="M1050,331.59c-.36-.91-.83-1.51-.7-1.89s.85-.74,1.31-1.1c.33.43,1,.93.92,1.27C1051.39,330.38,1050.76,330.76,1050,331.59Z"/><path class="cls-8" d="M1130.79,351a14,14,0,0,1,2.53-.45c.4,0,.78.4,1.84,1a9.35,9.35,0,0,1-2.51.74C1132.2,352.25,1131.77,351.69,1130.79,351Z"/><path class="cls-10" d="M1031.83,313.05c.48.92,1,1.46.92,1.93s-1,1-1.18.94a2.13,2.13,0,0,1-1.1-1.36C1030.42,314.23,1031.14,313.78,1031.83,313.05Z"/><path class="cls-10" d="M1028.82,310.31c-.47.39-.76.83-1.09.87s-.81-.27-1.21-.43c.33-.4.59-.92,1-1.14C1027.74,309.51,1028.24,310,1028.82,310.31Z"/><path class="cls-10" d="M1078.59,316.14l-.36.83c-.28-.12-.71-.18-.78-.37s.19-.54.31-.82Z"/><path class="cls-8" d="M1175,373.25l-2.1-.77Z"/><path class="cls-8" d="M1170.94,372l-.82-.56Z"/><path class="cls-16" d="M867,453.42v2c-1.73,3.33-8.65,6.83-12,6.07C858.06,457.37,863.31,456.55,867,453.42Z"/></svg>